<?xml version="1.0" encoding="UTF-8" standalone="no"?>
<!DOCTYPE svg PUBLIC "-//W3C//DTD SVG 1.1//EN" "http://www.w3.org/Graphics/SVG/1.1/DTD/svg11.dtd">
<svg width="100%" height="100%" viewBox="0 0 401 512" version="1.1" xmlns="http://www.w3.org/2000/svg" xmlns:xlink="http://www.w3.org/1999/xlink" xml:space="preserve" xmlns:serif="http://www.serif.com/" style="fill-rule:evenodd;clip-rule:evenodd;stroke-linejoin:round;stroke-miterlimit:2;">
    <g transform="matrix(1,0,0,1,-55.9973,6.21725e-15)">
        <path d="M384,504L128,504L96,104L416,104L384,504Z" style="fill:rgb(246,208,212);fill-rule:nonzero;"/>
        <path d="M366.544,104L334.544,504L384,504L416,104L366.544,104Z" style="fill:rgb(238,165,173);fill-rule:nonzero;"/>
        <path d="M96,56L416,56L400,8L112,8L96,56Z" style="fill:rgb(246,208,212);fill-rule:nonzero;"/>
        <path d="M432,56L448,104L64,104L80,56L432,56Z" style="fill:rgb(246,208,212);fill-rule:nonzero;"/>
        <path d="M432,56L382.544,56L398.544,104L448,104L432,56Z" style="fill:rgb(238,165,173);fill-rule:nonzero;"/>
        <path d="M400,8L350.544,8L366.544,56L416,56L400,8Z" style="fill:rgb(238,165,173);fill-rule:nonzero;"/>
        <path d="M103.144,193.32L408.856,193.32L392.024,403.704L119.976,403.704L103.144,193.32Z" style="fill:rgb(69,174,174);fill-rule:nonzero;"/>
        <path d="M359.4,193.32L342.568,403.704L392.024,403.704L408.856,193.32L359.4,193.32Z" style="fill:rgb(50,125,125);fill-rule:nonzero;"/>
        <g transform="matrix(0.940758,0,0,0.929271,36.1446,16.9031)">
            <ellipse cx="227.315" cy="308.262" rx="53.149" ry="53.806" style="fill:white;"/>
        </g>
        <g transform="matrix(0.41455,0,0,0.41455,217.334,268.05)">
            <g transform="matrix(1,0,0,1,-201.57,-152.69)">
                <path d="M229.65,248.59C228.15,253.12 226.78,257.98 227.52,262.77C228.65,270.14 234.3,275.06 239.59,279.02C248.023,285.34 256.69,291.2 265.59,296.6C276.41,303.17 287.76,309.12 299.81,310.66C319.42,313.16 340.15,302.57 351.18,282.92C362.21,263.27 362.32,235.16 350.39,216.28C337.21,195.4 309,183.58 287.75,187.92C258.65,193.85 240.31,216.45 229.65,248.59Z" style="fill:rgb(253,217,224);fill-rule:nonzero;"/>
            </g>
            <g transform="matrix(1,0,0,1,-201.57,-152.69)">
                <path d="M365.67,211.28C353.625,176.299 320.501,152.673 283.505,152.673C268.969,152.673 254.662,156.321 241.9,163.28L241.9,163.54C246.17,161.229 250.625,159.279 255.22,157.71C263.429,155.179 271.97,153.892 280.561,153.892C327.739,153.892 366.561,192.714 366.561,239.892C366.561,275.704 344.191,307.934 310.64,320.46C300.04,324.08 288.73,325.01 277.52,324.33C266.125,323.67 254.965,320.807 244.66,315.9C243.48,315.33 242.34,314.74 241.22,314.15C240.91,313.48 240.62,312.81 240.37,312.15C242.76,308.89 239.53,304.41 237.1,302.15C237.015,302.06 236.897,302.009 236.773,302.009C236.594,302.009 236.431,302.116 236.36,302.28C235.04,305.35 235.8,310.62 238.77,312.61C238.77,312.73 238.89,312.83 238.95,312.95C236.057,311.324 233.265,309.524 230.59,307.56C230.36,306.68 230.11,305.8 229.94,304.9C233.17,302.6 231.33,297.11 229.77,294.36C229.697,294.208 229.542,294.112 229.374,294.112C229.234,294.112 229.103,294.178 229.02,294.29C227.02,297.29 225.3,302.21 228.46,305.14C228.514,305.478 228.591,305.812 228.69,306.14C227.69,305.37 226.69,304.56 225.77,303.72C223.819,301.753 221.986,299.672 220.28,297.49C220.136,296.517 220.085,295.533 220.13,294.55C221.453,293.93 222.498,292.838 223.06,291.49C224.06,289.36 223.82,286.85 223.42,284.61C223.385,284.399 223.2,284.243 222.986,284.243C222.886,284.243 222.788,284.277 222.71,284.34C220.6,285.94 218.63,287.83 218.17,290.54C217.874,291.887 218.036,293.295 218.63,294.54L218.68,294.6L218.68,295.4C218.35,294.95 218,294.5 217.68,294.04C216.151,291.804 214.742,289.487 213.46,287.1C213.355,286.056 213.355,285.004 213.46,283.96C214.844,283.407 215.966,282.349 216.6,281C217.69,278.93 217.6,276.41 217.37,274.15C217.345,273.929 217.155,273.76 216.933,273.76C216.842,273.76 216.754,273.788 216.68,273.84C214.48,275.31 212.4,277.08 211.78,279.77C211.407,281.091 211.488,282.5 212.01,283.77C212.532,285.04 212.01,283.77 212.01,283.83C212,283.997 212,284.163 212.01,284.33C210.89,282.22 209.78,280.11 208.59,278.02C208.37,277.64 207.64,277.78 207.79,278.27C209.214,283.026 211.308,287.555 214.01,291.72C213.6,291.58 213.18,291.46 212.76,291.36C212.717,291.294 212.663,291.237 212.6,291.19C210.23,287.42 204.6,289.54 201.7,291.39C201.592,291.473 201.529,291.602 201.529,291.738C201.529,291.912 201.632,292.069 201.79,292.14C204.79,293.9 209.5,295.34 212.3,292.49C213.19,292.67 214.06,292.92 214.94,293.14C217.352,296.708 220.076,300.054 223.08,303.14C222.724,303.041 222.364,302.961 222,302.9C221.953,302.837 221.896,302.783 221.83,302.74C219.24,299.12 213.77,301.58 210.96,303.6C210.865,303.683 210.811,303.804 210.811,303.93C210.811,304.111 210.922,304.274 211.09,304.34C214.15,305.92 218.98,307.07 221.61,304.06C222.61,304.2 223.55,304.41 224.53,304.6C225.17,305.22 225.8,305.82 226.45,306.41C228.715,308.462 231.128,310.344 233.67,312.04C232.587,311.825 231.483,311.734 230.38,311.77C227.6,308.89 222.49,311.5 219.95,313.44C219.845,313.523 219.783,313.651 219.783,313.785C219.783,313.919 219.845,314.047 219.95,314.13C222.8,316.01 228.35,316.13 230.71,313.3C232.63,313.17 234.48,313.73 236.38,313.8C238.15,314.85 239.98,315.8 241.85,316.66L242.34,316.93C253.331,322.189 265.195,325.386 277.34,326.36C312.532,328.792 345.88,309.63 361.5,278C371.676,257.197 373.177,233.178 365.67,211.27L365.67,211.28ZM238.28,308.64C238.143,309.216 238.106,309.811 238.17,310.4C236.844,308.258 236.399,305.683 236.93,303.22C238.15,304.54 239.49,305.93 239.73,307.75C239.796,308.473 239.745,309.203 239.58,309.91C239.387,309.415 239.113,308.955 238.77,308.55C238.715,308.487 238.635,308.451 238.552,308.451C238.431,308.451 238.322,308.527 238.28,308.64ZM228.16,302.81C227.16,300.53 228.09,297.41 229.31,295.4C230.04,296.95 230.85,298.61 230.61,300.33C230.474,301.096 230.192,301.83 229.78,302.49C229.889,301.517 229.79,300.532 229.49,299.6C229.441,299.488 229.329,299.415 229.206,299.415C229.104,299.415 229.008,299.465 228.95,299.55C228.279,300.495 227.997,301.663 228.16,302.81ZM216.53,275C216.6,276.85 216.71,278.86 215.53,280.39C215.076,280.953 214.544,281.448 213.95,281.86C214.509,280.716 214.922,279.507 215.18,278.26C215.182,278.246 215.183,278.232 215.183,278.217C215.183,278.047 215.043,277.907 214.873,277.907C214.811,277.907 214.751,277.926 214.7,277.96C213.669,278.922 212.93,280.156 212.57,281.52C212.52,279 214.56,276.38 216.53,275ZM202.89,291.8C204.41,290.98 206.06,290.07 207.78,290.27C208.477,290.367 209.153,290.58 209.78,290.9C208.953,290.811 208.116,290.935 207.35,291.26C207.1,291.39 207,291.83 207.35,291.94C208.493,292.207 209.666,292.328 210.84,292.3C208.54,293.72 205.11,293 202.89,291.78L202.89,291.8ZM222.63,285.43C222.81,287.28 223.04,289.27 221.99,290.87C221.569,291.461 221.064,291.986 220.49,292.43C220.975,291.257 221.311,290.027 221.49,288.77C221.492,288.757 221.493,288.743 221.493,288.73C221.493,288.565 221.357,288.43 221.193,288.43C221.122,288.43 221.054,288.455 221,288.5C220.025,289.519 219.362,290.796 219.09,292.18C218.86,289.64 220.75,286.93 222.63,285.41L222.63,285.43ZM212.19,303.94C213.65,303.04 215.24,302.03 216.96,302.12C217.651,302.178 218.328,302.354 218.96,302.64C218.129,302.598 217.302,302.774 216.56,303.15C216.32,303.29 216.25,303.73 216.56,303.82C217.709,304.015 218.878,304.066 220.04,303.97C217.91,305.51 214.47,305 212.19,303.92L212.19,303.94ZM221.11,313.78C222.72,312.73 224.45,311.55 226.43,311.78C226.88,311.848 227.323,311.962 227.75,312.12C227.335,312.219 226.928,312.346 226.53,312.5C226.335,312.589 226.209,312.785 226.209,313C226.209,313.215 226.335,313.411 226.53,313.5C227.116,313.711 227.745,313.769 228.36,313.67C226.053,314.667 223.441,314.699 221.11,313.76L221.11,313.78Z" style="fill:rgb(14,13,14);fill-rule:nonzero;"/>
            </g>
            <g transform="matrix(1,0,0,1,-201.57,-152.69)">
                <path d="M262.81,317.78C261.928,317.628 261.25,316.901 261.16,316.01L261.16,315.43C261.67,308.9 260.78,297.87 259.16,286.34C257.25,272.58 254.28,257.95 251.55,250.1C247.69,251.52 242.12,254.28 233.4,256.04C226.9,257.35 219.48,255.5 219.04,249.81L218.93,248.59C218.925,248.566 218.923,248.542 218.923,248.518C218.923,248.32 219.074,248.152 219.27,248.13L219.39,248.13C219.612,248.101 219.819,248.258 219.85,248.48L219.94,249.58C220.73,255.22 226.82,255.64 232.94,254.8C240.15,253.8 275.61,238.04 283.68,236.92C287.68,236.36 291.14,237 293.07,239.92L293.16,240.08C293.184,240.279 293.095,240.476 292.93,240.59L292.71,240.68C292.54,240.723 292.361,240.65 292.27,240.5C290.57,237.98 287.43,237.06 283.75,237.93C275.83,239.78 265.21,244.74 259.93,246.93C261.435,252.798 262.558,258.757 263.29,264.77C265.79,282.77 267.52,307.11 265.47,315.56C265.266,316.648 264.443,317.521 263.37,317.79L262.81,317.78Z" style="fill:rgb(14,13,14);fill-rule:nonzero;"/>
            </g>
            <g transform="matrix(1,0,0,1,-201.57,-152.69)">
                <path d="M314.17,268.5C314.007,268.524 313.867,268.629 313.8,268.78C312.22,271.9 306.15,288.72 305.07,288.99C304.78,288.99 304.6,288.64 304.51,287.94C303.82,283.01 306.22,268.3 306.09,265.65C305.91,264.38 304.4,263.76 303.01,263.95C301.887,264.049 300.972,264.914 300.81,266.03C300.722,266.606 300.665,267.187 300.64,267.77C299.527,266.521 297.872,265.89 296.21,266.08C293.427,266.631 291.105,268.557 290.05,271.19C289.337,273.031 288.997,274.996 289.05,276.97C286.75,281.8 283.44,290.49 279.67,291.28L279.61,291.28C277.52,291.57 276.11,287.39 275.55,283.33C275.271,281.578 275.2,279.799 275.34,278.03L275.58,278.03C278.484,277.563 280.603,274.969 280.48,272.03C280.324,270.645 279.068,269.626 277.68,269.76L276.45,269.76C273.236,270.13 270.709,272.745 270.45,275.97C270.116,278.21 270.095,280.485 270.39,282.73C271.19,288.53 274.39,292.94 279.28,292.26L279.8,292.19C283.68,291.41 286.8,284 289.17,278.88C289.61,281.66 290.94,283.66 292.75,283.41C296.4,282.84 299.09,275.41 300.38,271.94C300.134,275.873 300.208,279.819 300.6,283.74C301.1,287.34 302.22,290.32 304.6,290.1C304.86,290.081 305.112,290.006 305.34,289.88C305.4,289.88 305.45,289.81 305.5,289.74C307.98,287.56 312.37,273.64 314.59,269.19L314.67,268.89C314.621,268.656 314.409,268.49 314.17,268.5ZM277.83,270.64C278.7,270.52 279.27,271.21 279.4,272.14C279.627,274.547 277.862,276.724 275.46,277L275.34,277C275.49,274.28 276.9,270.77 277.83,270.64ZM292.83,282.46C292.752,282.297 292.708,282.12 292.7,281.94C292.5,280.49 293.12,276.86 294.14,273.58C294.8,271.58 296.06,267.81 297.98,267.58C298.67,267.48 299.49,267.84 300.43,269.01C299.42,271.79 296.12,281.65 292.86,282.46L292.83,282.46Z" style="fill:rgb(14,13,14);fill-rule:nonzero;"/>
            </g>
            <g transform="matrix(1,0,0,1,-201.57,-152.69)">
                <path d="M314.6,241.43C313.39,242.68 309.77,245.64 308.75,245.64L308.57,245.64C307.81,245.52 307.52,244.7 307.52,243.35C307.52,238.02 314.88,208.46 314.88,200.35C314.88,196.83 314,194.35 311.43,193.9L310.72,193.84C302.99,193.84 298.3,212.95 297.72,218.1C297.504,216.666 297.387,215.22 297.37,213.77C297.388,211.199 297.724,208.639 298.37,206.15L298.42,205.74C298.219,204.462 297.083,203.524 295.79,203.57C294.622,203.586 293.616,204.424 293.39,205.57C293.161,206.554 293.034,207.56 293.01,208.57C291.572,211.575 289.247,214.067 286.35,215.71C285.522,216.181 284.634,216.538 283.71,216.77C283.936,215.411 284.057,214.037 284.07,212.66C284.07,205.92 280.55,203.17 277.21,203.17C277.153,203.168 277.096,203.167 277.04,203.167C274.017,203.167 271.53,205.655 271.53,208.677C271.53,208.698 271.53,208.719 271.53,208.74C271.562,210.113 271.926,211.458 272.59,212.66C269.93,215.95 265.69,219 261.21,221.81C262.079,218.98 262.533,216.04 262.56,213.08C262.56,207.28 260.45,201.77 253.77,201.77C250.706,201.914 247.691,202.591 244.86,203.77C250.78,199.55 260.56,189.36 260.56,180.92C260.557,179.718 260.34,178.526 259.92,177.4C258.75,174.53 256.87,173.48 254.76,173.48C251.48,173.48 247.67,176 245.27,178.22C241.563,181.659 238.611,185.831 236.6,190.47C237.24,185.47 238.82,180.04 239.76,175.47L239.76,175C239.687,173.431 238.454,172.142 236.89,172L236.6,172C235.19,172 232.96,172.88 232.6,174.23C230.6,180.79 229.38,194.5 229.38,207.1C229.38,216.01 229.87,226.1 231.28,230.84C231.45,231.66 232.1,232.78 233.03,232.78L233.39,232.72C234.39,232.48 234.68,231.31 234.68,230.37L234.68,230.08C234.38,227.08 234.36,222.22 234.36,219.08C234.46,211.318 235.008,203.569 236,195.87C236.88,190.87 243.85,177.29 250.65,177.29L250.95,177.29C253.52,177.41 254.17,180.1 254.17,182.39L254.11,183.62C253.46,189.62 248.66,198.68 237.76,206.82C237.633,206.892 237.561,207.035 237.58,207.18C237.574,207.449 237.782,207.679 238.05,207.7L238.29,207.64C241.478,206.193 244.743,204.921 248.07,203.83C248.593,203.722 249.126,203.665 249.66,203.66C251.533,203.631 253.265,204.678 254.11,206.35C255.196,208.716 255.697,211.31 255.57,213.91C255.542,215.991 255.388,218.068 255.11,220.13C254.742,222.283 254.251,224.413 253.64,226.51C250.77,228.21 239.55,234.69 239.55,239.02C239.563,239.737 239.833,240.425 240.31,240.96C240.939,241.811 241.953,242.295 243.01,242.25C244.699,242.091 246.315,241.483 247.69,240.49C252.69,237.09 258.74,228.97 260.79,223.35C265.29,220.56 269.62,217.53 272.57,214.24C272.458,214.944 272.401,215.657 272.4,216.37C272.385,217.673 272.623,218.967 273.1,220.18C273.83,222.286 275.873,223.671 278.1,223.57L278.63,223.57C281.63,223.34 283.02,220.35 283.63,217.89C284.782,217.629 285.888,217.194 286.91,216.6C289.403,215.152 291.518,213.133 293.08,210.71C293.16,215.48 294.2,221.4 296,223.93C296.292,224.362 296.78,224.621 297.301,224.621C298.162,224.621 298.871,223.913 298.871,223.051C298.871,223.031 298.871,223.01 298.87,222.99L298.81,222.58C298.707,221.999 298.666,221.409 298.69,220.82C298.69,213.26 304.43,197.15 308.18,197.15C308.609,197.16 309.016,197.348 309.3,197.67C309.538,198.203 309.638,198.788 309.59,199.37C309.59,204.3 302.69,232.51 302.69,240.19C302.69,244.29 303.62,247.84 307.31,247.84L308.02,247.78C309.8,247.84 313.77,244.37 315.37,242.69L314.6,241.43ZM242.48,241.07C241.923,241.089 241.392,240.825 241.07,240.37C240.701,240.018 240.491,239.53 240.49,239.02C240.49,235.51 251,229.21 253.17,227.86C252.41,230 245.88,241.07 242.48,241.07ZM278.55,222.58L278.43,222.58C276.73,222.58 276.26,220.23 276.26,218.3C276.265,217.771 276.306,217.243 276.38,216.72C277.72,217.704 279.348,218.217 281.01,218.18L282.53,218.07C282,220.35 281.07,222.52 278.55,222.58ZM282.77,217.07C282.18,217.13 281.6,217.19 281.07,217.19C279.445,217.22 277.856,216.702 276.56,215.72C276.88,213.232 277.804,210.86 279.25,208.81C279.468,208.544 279.591,208.213 279.6,207.87C279.6,206.87 278.32,206.05 277.14,206.05C276.545,206.009 275.97,206.278 275.62,206.76C274.552,208.255 273.741,209.918 273.22,211.68C272.845,210.748 272.645,209.755 272.63,208.75C272.626,208.67 272.623,208.59 272.623,208.509C272.623,206.134 274.578,204.179 276.953,204.179C276.979,204.179 277.004,204.18 277.03,204.18C279.96,204.18 283.24,206.76 283.24,212.91C283.211,214.308 283.054,215.701 282.77,217.07Z" style="fill:rgb(14,13,14);fill-rule:nonzero;"/>
            </g>
            <g transform="matrix(1,0,0,1,-201.57,-152.69)">
                <path d="M338.2,261.2C337.886,261.198 337.574,261.14 337.28,261.03L325.45,256.61C325.025,256.454 324.659,256.171 324.4,255.8C321.72,252.04 320.52,248.65 320.58,244.95C319.6,245.258 318.545,245.233 317.58,244.88C316.204,244.346 315.114,243.256 314.58,241.88C314.01,240.407 314.105,238.758 314.84,237.36C315.622,235.743 317.201,234.651 318.99,234.49C320.558,234.336 322.105,234.965 323.12,236.17C323.76,235.04 324.44,235 325.23,235.29L351.23,245C351.94,245.281 352.359,246.028 352.23,246.78C351.84,249.42 349.73,258.24 338.85,261.09C338.64,261.157 338.421,261.194 338.2,261.2ZM321.93,242.92L321.84,244.05C321.56,247.89 322.62,251.19 325.4,255.05C325.516,255.224 325.684,255.357 325.88,255.43L337.71,259.84C337.975,259.941 338.265,259.958 338.54,259.89C348.7,257.23 350.66,249.03 351.02,246.58C351.063,246.4 350.975,246.213 350.81,246.13L324.75,236.4C324.44,236.28 324.31,236.24 323.9,237.19C323.855,237.294 323.801,237.394 323.74,237.49L323.2,238.49L322.59,237.61C321.913,236.294 320.492,235.522 319.02,235.67C317.659,235.801 316.462,236.637 315.87,237.87C315.302,238.959 315.225,240.241 315.66,241.39C316.079,242.449 316.925,243.285 317.99,243.69C318.958,244.051 320.04,243.955 320.93,243.43L321.93,242.92ZM319.31,242.92C318.989,242.919 318.671,242.861 318.37,242.75C316.863,242.138 316.114,240.407 316.7,238.89C316.971,238.104 317.543,237.456 318.29,237.09C318.951,236.771 319.714,236.739 320.4,237C321.903,237.616 322.647,239.346 322.06,240.86C321.804,241.649 321.231,242.298 320.48,242.65C320.116,242.83 319.716,242.926 319.31,242.93L319.31,242.92ZM319.46,238.05C319.235,238.051 319.013,238.102 318.81,238.2C318.36,238.421 318.018,238.814 317.86,239.29C317.505,240.182 317.923,241.209 318.8,241.6C319.178,241.74 319.598,241.718 319.96,241.54C320.426,241.331 320.787,240.941 320.96,240.46C321.315,239.568 320.897,238.541 320.02,238.15C319.842,238.08 319.651,238.049 319.46,238.06L319.46,238.05Z" style="fill:rgb(14,13,14);fill-rule:nonzero;"/>
            </g>
            <g transform="matrix(1,0,0,1,-201.57,-152.69)">
                <path d="M327.13,241.73L327.82,239.81C327.82,239.81 328,239.44 327.94,239.28C327.88,239.12 327.45,239.01 327.45,239.01L326,238.48C325.618,238.344 325.189,238.511 325,238.87C322.14,243.704 322.563,249.835 326.06,254.23C326.256,254.502 326.532,254.705 326.85,254.81L329.27,255.63L329.02,255.3C325.983,251.458 325.259,246.256 327.13,241.73Z" style="fill:rgb(198,162,165);fill-rule:nonzero;"/>
            </g>
            <g transform="matrix(1,0,0,1,-201.57,-152.69)">
                <path d="M349,247.55C349.072,247.17 348.867,246.789 348.51,246.64L348.32,246.57L337,242.47C337,242.47 336.88,242.47 336.92,242.55C337.051,242.879 337.282,243.159 337.58,243.35C337.79,243.49 339.76,244.23 339.76,244.23L344.11,245.81C345.269,246.227 345.888,247.515 345.49,248.68C344.269,252.33 341.519,255.274 337.96,256.74C337.264,257.1 336.483,257.266 335.7,257.22C334.49,257.22 333.39,257.17 333.39,257.17L336.83,258.42C337.522,258.642 338.26,258.677 338.97,258.52C344.197,257.201 348.154,252.873 349,247.55Z" style="fill:rgb(198,162,165);fill-rule:nonzero;"/>
            </g>
            <g transform="matrix(1,0,0,1,-201.57,-152.69)">
                <path d="M320.34,241.77L320.34,241.37C320.34,240.53 319.08,240.82 319.06,241.59C319.06,241.72 319.25,241.59 319.25,241.72L319.25,241.88C319.21,241.983 319.164,242.083 319.11,242.18C318.73,242.79 317.71,244.24 317.33,244.85C317.06,245.27 318.09,245.46 318.33,245.07C318.76,244.39 319.73,243.07 320.15,242.35C320.261,242.176 320.326,241.976 320.34,241.77Z" style="fill:rgb(14,13,14);fill-rule:nonzero;"/>
            </g>
            <g transform="matrix(1,0,0,1,-201.57,-152.69)">
                <path d="M318.68,240.14C318.68,239.62 317.68,239.45 317.6,239.96C317.6,240.11 317.55,240.39 317.53,240.53L317.53,240.72C317.488,240.84 317.431,240.954 317.36,241.06L315.43,243.93C315.11,244.42 315.98,244.82 316.28,244.37C316.81,243.59 317.94,242.09 318.41,241.27C318.617,240.931 318.712,240.536 318.68,240.14Z" style="fill:rgb(14,13,14);fill-rule:nonzero;"/>
            </g>
            <g transform="matrix(1,0,0,1,-201.57,-152.69)">
                <path d="M348.7,224.45C347.369,223.681 345.743,223.61 344.35,224.26C343.586,222.622 341.935,221.569 340.127,221.569C338.505,221.569 336.995,222.416 336.15,223.8C335.497,224.844 335.209,226.075 335.33,227.3C335.526,228.812 336.037,230.267 336.83,231.57C336.92,231.75 337.1,232.03 337.33,232.39C338.065,233.417 338.638,234.55 339.03,235.75C339.116,236.33 339.116,236.92 339.03,237.5C338.95,238.16 338.8,238.86 338.8,238.87L338.68,239.4L338.98,238.94C339.829,237.723 340.031,236.164 339.52,234.77C339.197,234.058 338.836,233.364 338.44,232.69L338.39,232.59C337.35,230.973 336.669,229.152 336.39,227.25C336.336,226.244 336.565,225.243 337.05,224.36C337.809,223.163 339.249,222.572 340.63,222.89C340.847,222.927 341.061,222.98 341.27,223.05C342.337,223.433 343.158,224.303 343.48,225.39L343.69,226.06L344.29,225.68C345.425,224.915 346.906,224.876 348.08,225.58C349.339,226.219 350.063,227.59 349.88,228.99C349.702,230.036 349.239,231.012 348.54,231.81C348.197,232.165 347.818,232.483 347.41,232.76L347.17,232.94C345.913,233.819 344.574,234.572 343.17,235.19L343.23,235.38C345.58,234.807 347.756,233.671 349.57,232.07C350.337,231.277 350.813,230.248 350.92,229.15C351.203,227.282 350.323,225.418 348.7,224.45Z" style="fill:rgb(14,13,14);fill-rule:nonzero;"/>
            </g>
        </g>
        <path d="M455.592,101.472L439.592,53.472C438.504,50.2 435.448,48 432,48L421.768,48L407.592,5.472C406.504,2.2 403.448,-0 400,-0L112,-0C108.552,-0 105.496,2.2 104.408,5.472L90.232,48L80,48C76.552,48 73.504,50.2 72.408,53.472L56.408,101.472C55.592,103.912 56.008,106.592 57.512,108.68C59.016,110.768 61.432,112 64,112L88.616,112L120.024,504.64C120.36,508.8 123.832,512 128,512L384,512C388.168,512 391.64,508.8 391.976,504.64L423.384,112L448,112C450.568,112 452.984,110.768 454.488,108.672C455.992,106.592 456.4,103.912 455.592,101.472ZM384.64,395.696L127.36,395.696L111.808,201.32L400.184,201.32L384.64,395.696ZM135.384,496L128.64,411.696L383.36,411.696L376.616,496L135.384,496ZM401.472,185.328L110.528,185.328L104.664,112L407.336,112L401.472,185.328ZM75.096,96L85.76,64L96,64C99.448,64 102.504,61.8 103.592,58.528L117.768,16L394.24,16L408.416,58.528C409.504,61.8 412.552,64 416,64L426.232,64L436.896,96L75.096,96Z" style="fill-rule:nonzero;"/>
        <path d="M184,48L136,48C131.584,48 128,51.584 128,56C128,60.416 131.584,64 136,64L184,64C188.416,64 192,60.416 192,56C192,51.584 188.416,48 184,48Z" style="fill-rule:nonzero;"/>
        <path d="M368,48L248,48C243.584,48 240,51.584 240,56C240,60.416 243.584,64 248,64L368,64C372.416,64 376,60.416 376,56C376,51.584 372.416,48 368,48Z" style="fill-rule:nonzero;"/>
    </g>
</svg>
