<svg id="Layer_1" data-name="Layer 1" xmlns="http://www.w3.org/2000/svg" viewBox="0 0 168.82 173.88"><defs><style>.cls-1{fill:#fdd9e0;}.cls-2{fill:#0e0d0e;}.cls-3{fill:#c6a2a5;}</style></defs><title>logo</title><path class="cls-1" d="M229.65,248.59c-1.5,4.53-2.87,9.39-2.13,14.18,1.13,7.37,6.78,12.29,12.07,16.25q12.65,9.48,26,17.58c10.82,6.57,22.17,12.52,34.22,14.06,19.61,2.5,40.34-8.09,51.37-27.74s11.14-47.76-.79-66.64c-13.18-20.88-41.39-32.7-62.64-28.36C258.65,193.85,240.31,216.45,229.65,248.59Z" transform="translate(-201.57 -152.69)"/><path class="cls-2" d="M365.67,211.28a86.9,86.9,0,0,0-123.77-48v.26a87.13,87.13,0,0,1,13.32-5.83,86,86,0,0,1,55.42,162.75c-10.6,3.62-21.91,4.55-33.12,3.87a88.3,88.3,0,0,1-32.86-8.43c-1.18-.57-2.32-1.16-3.44-1.75-.31-.67-.6-1.34-.85-2v0c2.39-3.26-.84-7.74-3.27-10a.45.45,0,0,0-.74.13c-1.32,3.07-.56,8.34,2.41,10.33,0,.12.12.22.18.34a82.12,82.12,0,0,1-8.36-5.39c-.23-.88-.48-1.76-.65-2.66,3.23-2.3,1.39-7.79-.17-10.54a.44.44,0,0,0-.75-.07c-2,3-3.72,7.92-.56,10.85a7.47,7.47,0,0,0,.23,1c-1-.77-2-1.58-2.92-2.42a70.67,70.67,0,0,1-5.49-6.23,15.3,15.3,0,0,1-.15-2.94,5.88,5.88,0,0,0,2.93-3.06c1-2.13.76-4.64.36-6.88a.44.44,0,0,0-.71-.27c-2.11,1.6-4.08,3.49-4.54,6.2a6.2,6.2,0,0,0,.46,4l.05.06,0,0c0,.27,0,.54,0,.8-.33-.45-.68-.9-1-1.36a76,76,0,0,1-4.22-6.94,15.69,15.69,0,0,1,0-3.14A5.88,5.88,0,0,0,216.6,281c1.09-2.07,1-4.59.77-6.85a.44.44,0,0,0-.69-.31c-2.2,1.47-4.28,3.24-4.9,5.93a6.14,6.14,0,0,0,.23,4s0,0,0,.06l0,0a4.18,4.18,0,0,0,0,.5c-1.12-2.11-2.23-4.22-3.42-6.31-.22-.38-.95-.24-.8.25a52.27,52.27,0,0,0,6.22,13.45c-.41-.14-.83-.26-1.25-.36a.65.65,0,0,0-.16-.17c-2.37-3.77-8-1.65-10.9.2a.44.44,0,0,0,.09.75c3,1.76,7.71,3.2,10.51.35.89.18,1.76.43,2.64.65a72.72,72.72,0,0,0,8.14,10,10.46,10.46,0,0,0-1.08-.24.65.65,0,0,0-.17-.16c-2.59-3.62-8.06-1.16-10.87.86a.44.44,0,0,0,.13.74c3.06,1.58,7.89,2.73,10.52-.28,1,.14,1.94.35,2.92.54.64.62,1.27,1.22,1.92,1.81a62,62,0,0,0,7.22,5.63,14.48,14.48,0,0,0-3.29-.27c-2.78-2.88-7.89-.27-10.43,1.67a.44.44,0,0,0,0,.69c2.85,1.88,8.4,2,10.76-.83h0c1.92-.13,3.77.43,5.67.5,1.77,1.05,3.6,2,5.47,2.86l.49.27a99.53,99.53,0,0,0,35,9.43A87.16,87.16,0,0,0,361.5,278a87.39,87.39,0,0,0,4.17-66.73ZM238.28,308.64a5.18,5.18,0,0,0-.11,1.76,9.74,9.74,0,0,1-1.24-7.18c1.22,1.32,2.56,2.71,2.8,4.53a6.81,6.81,0,0,1-.15,2.16,4.81,4.81,0,0,0-.81-1.36A.29.29,0,0,0,238.28,308.64Zm-10.12-5.83c-1-2.28-.07-5.4,1.15-7.41.73,1.55,1.54,3.21,1.3,4.93a6.1,6.1,0,0,1-.83,2.16,6.93,6.93,0,0,0-.29-2.89.31.31,0,0,0-.54-.05A4.53,4.53,0,0,0,228.16,302.81ZM216.53,275c.07,1.85.18,3.86-1,5.39a7.59,7.59,0,0,1-1.58,1.47,15.19,15.19,0,0,0,1.23-3.6.31.31,0,0,0-.48-.3,7.48,7.48,0,0,0-2.13,3.56C212.52,279,214.56,276.38,216.53,275Zm-13.64,16.8c1.52-.82,3.17-1.73,4.89-1.53a6.31,6.31,0,0,1,2,.63,4.89,4.89,0,0,0-2.43.36c-.25.13-.35.57,0,.68a13.88,13.88,0,0,0,3.49.36C208.54,293.72,205.11,293,202.89,291.78Zm19.74-6.37c.18,1.85.41,3.84-.64,5.44a7.41,7.41,0,0,1-1.5,1.56,15.16,15.16,0,0,0,1-3.66.3.3,0,0,0-.49-.27,7.39,7.39,0,0,0-1.91,3.68C218.86,289.64,220.75,286.93,222.63,285.41Zm-10.44,18.51c1.46-.9,3.05-1.91,4.77-1.82a6.09,6.09,0,0,1,2,.52,4.78,4.78,0,0,0-2.4.51c-.24.14-.31.58,0,.67a13.93,13.93,0,0,0,3.48.15C217.91,305.51,214.47,305,212.19,303.92Zm8.92,9.84c1.61-1.05,3.34-2.23,5.32-2a6.74,6.74,0,0,1,1.32.34,9.62,9.62,0,0,0-1.22.38.55.55,0,0,0,0,1,3.67,3.67,0,0,0,1.83.17A9.41,9.41,0,0,1,221.11,313.76Z" transform="translate(-201.57 -152.69)"/><path class="cls-2" d="M262.81,317.78a2,2,0,0,1-1.65-1.77l0-.58c.51-6.53-.38-17.56-2-29.09-1.91-13.76-4.88-28.39-7.61-36.24-3.86,1.42-9.43,4.18-18.15,5.94-6.5,1.31-13.92-.54-14.36-6.23l-.11-1.22a.39.39,0,0,1,.34-.46h.12a.41.41,0,0,1,.46.35l.09,1.1c.79,5.64,6.88,6.06,13,5.22,7.21-1,42.67-16.76,50.74-17.88,4-.56,7.46.08,9.39,3l.09.16a.54.54,0,0,1-.23.51l-.22.09a.4.4,0,0,1-.44-.18c-1.7-2.52-4.84-3.44-8.52-2.57-7.92,1.85-18.54,6.81-23.82,9a139.78,139.78,0,0,1,3.36,17.84c2.5,18,4.23,42.34,2.18,50.79a2.84,2.84,0,0,1-2.1,2.23Z" transform="translate(-201.57 -152.69)"/><path class="cls-2" d="M314.17,268.5a.48.48,0,0,0-.37.28c-1.58,3.12-7.65,19.94-8.73,20.21-.29,0-.47-.35-.56-1.05-.69-4.93,1.71-19.64,1.58-22.29-.18-1.27-1.69-1.89-3.08-1.7a2.44,2.44,0,0,0-2.2,2.08,16,16,0,0,0-.17,1.74,5.15,5.15,0,0,0-4.43-1.69,8.39,8.39,0,0,0-6.16,5.11,14.91,14.91,0,0,0-1,5.78c-2.3,4.83-5.61,13.52-9.38,14.31h-.06c-2.09.29-3.5-3.89-4.06-7.95a22.46,22.46,0,0,1-.21-5.3l.24,0a5.83,5.83,0,0,0,4.9-6,2.57,2.57,0,0,0-2.8-2.27l-1.23,0a6.8,6.8,0,0,0-6,6.21,24.34,24.34,0,0,0-.06,6.76c.8,5.8,4,10.21,8.89,9.53l.52-.07c3.88-.78,7-8.19,9.37-13.31.44,2.78,1.77,4.78,3.58,4.53,3.65-.57,6.34-8,7.63-11.47a72.86,72.86,0,0,0,.22,11.8c.5,3.6,1.62,6.58,4,6.36a1.81,1.81,0,0,0,.74-.22c.06,0,.11-.07.16-.14,2.48-2.18,6.87-16.1,9.09-20.55l.08-.3A.49.49,0,0,0,314.17,268.5Zm-36.34,2.14c.87-.12,1.44.57,1.57,1.5a4.47,4.47,0,0,1-3.94,4.86l-.12,0C275.49,274.28,276.9,270.77,277.83,270.64Zm15,11.82a1.34,1.34,0,0,1-.13-.52c-.2-1.45.42-5.08,1.44-8.36.66-2,1.92-5.77,3.84-6,.69-.1,1.51.26,2.45,1.43C299.42,271.79,296.12,281.65,292.86,282.46Z" transform="translate(-201.57 -152.69)"/><path class="cls-2" d="M314.6,241.43c-1.21,1.25-4.83,4.21-5.85,4.21h-.18c-.76-.12-1.05-.94-1.05-2.29,0-5.33,7.36-34.89,7.36-43,0-3.52-.88-6-3.45-6.45l-.71-.06c-7.73,0-12.42,19.11-13,24.26a31.62,31.62,0,0,1-.35-4.33,31.2,31.2,0,0,1,1-7.62l.05-.41a2.57,2.57,0,0,0-2.63-2.17,2.48,2.48,0,0,0-2.4,2,14.78,14.78,0,0,0-.38,3,16.29,16.29,0,0,1-6.66,7.14,10.5,10.5,0,0,1-2.64,1.06,26.6,26.6,0,0,0,.36-4.11c0-6.74-3.52-9.49-6.86-9.49a5.51,5.51,0,0,0-5.68,5.57,8.51,8.51,0,0,0,1.06,3.92c-2.66,3.29-6.9,6.34-11.38,9.15a30.69,30.69,0,0,0,1.35-8.73c0-5.8-2.11-11.31-8.79-11.31a26.4,26.4,0,0,0-8.91,2c5.92-4.22,15.7-14.41,15.7-22.85a10.16,10.16,0,0,0-.64-3.52c-1.17-2.87-3.05-3.92-5.16-3.92-3.28,0-7.09,2.52-9.49,4.74a36.52,36.52,0,0,0-8.67,12.25c.64-5,2.22-10.43,3.16-15v-.47a3.16,3.16,0,0,0-2.87-3h-.29c-1.41,0-3.64.88-4,2.23-2,6.56-3.22,20.27-3.22,32.87,0,8.91.49,19,1.9,23.74.17.82.82,1.94,1.75,1.94l.36-.06c1-.24,1.29-1.41,1.29-2.35v-.29c-.3-3-.32-7.86-.32-11A202.1,202.1,0,0,1,236,195.87c.88-5,7.85-18.58,14.65-18.58h.3c2.57.12,3.22,2.81,3.22,5.1l-.06,1.23c-.65,6-5.45,15.06-16.35,23.2a.36.36,0,0,0-.18.36.51.51,0,0,0,.47.52l.24-.06a96.16,96.16,0,0,1,9.78-3.81,8.29,8.29,0,0,1,1.59-.17,4.9,4.9,0,0,1,4.45,2.69,16.23,16.23,0,0,1,1.46,7.56,51.7,51.7,0,0,1-.46,6.22,57.47,57.47,0,0,1-1.47,6.38c-2.87,1.7-14.09,8.18-14.09,12.51a3,3,0,0,0,.76,1.94,3.19,3.19,0,0,0,2.7,1.29,9.52,9.52,0,0,0,4.68-1.76c5-3.4,11.05-11.52,13.1-17.14,4.5-2.79,8.83-5.82,11.78-9.11a13.7,13.7,0,0,0-.17,2.13,10.09,10.09,0,0,0,.7,3.81,5.05,5.05,0,0,0,5,3.39h.53c3-.23,4.39-3.22,5-5.68a11.66,11.66,0,0,0,3.28-1.29,18.25,18.25,0,0,0,6.17-5.89c.08,4.77,1.12,10.69,2.92,13.22a1.57,1.57,0,0,0,2.87-.94l-.06-.41a8.16,8.16,0,0,1-.12-1.76c0-7.56,5.74-23.67,9.49-23.67a1.54,1.54,0,0,1,1.12.52,3.47,3.47,0,0,1,.29,1.7c0,4.93-6.9,33.14-6.9,40.82,0,4.1.93,7.65,4.62,7.65l.71-.06c1.78.06,5.75-3.41,7.35-5.09Zm-72.12-.36a1.66,1.66,0,0,1-1.41-.7,1.87,1.87,0,0,1-.58-1.35c0-3.51,10.51-9.81,12.68-11.16C252.41,230,245.88,241.07,242.48,241.07Zm36.07-18.49h-.12c-1.7,0-2.17-2.35-2.17-4.28a12.12,12.12,0,0,1,.12-1.58,7.54,7.54,0,0,0,4.63,1.46l1.52-.11C282,220.35,281.07,222.52,278.55,222.58Zm4.22-5.51c-.59.06-1.17.12-1.7.12a7.25,7.25,0,0,1-4.51-1.47,15.39,15.39,0,0,1,2.69-6.91,1.55,1.55,0,0,0,.35-.94c0-1-1.28-1.82-2.46-1.82a1.73,1.73,0,0,0-1.52.71,16.51,16.51,0,0,0-2.4,4.92,8.16,8.16,0,0,1-.59-2.93,4.33,4.33,0,0,1,4.4-4.57c2.93,0,6.21,2.58,6.21,8.73A22.83,22.83,0,0,1,282.77,217.07Z" transform="translate(-201.57 -152.69)"/><path class="cls-2" d="M338.2,261.2a2.67,2.67,0,0,1-.92-.17l-11.83-4.42a2.21,2.21,0,0,1-1.05-.81c-2.68-3.76-3.88-7.15-3.82-10.85a4.66,4.66,0,0,1-3-.07,5.26,5.26,0,0,1-3-3,5.47,5.47,0,0,1,.26-4.52,5.12,5.12,0,0,1,4.15-2.87,4.79,4.79,0,0,1,4.13,1.68c.64-1.13,1.32-1.17,2.11-.88L351.23,245a1.62,1.62,0,0,1,1,1.78c-.39,2.64-2.5,11.46-13.38,14.31A2.37,2.37,0,0,1,338.2,261.2Zm-16.27-18.28-.09,1.13c-.28,3.84.78,7.14,3.56,11a1,1,0,0,0,.48.38l11.83,4.41a1.39,1.39,0,0,0,.83.05c10.16-2.66,12.12-10.86,12.48-13.31h0a.4.4,0,0,0-.21-.45l-26.06-9.73c-.31-.12-.44-.16-.85.79a2.19,2.19,0,0,1-.16.3l-.54,1-.61-.88a3.61,3.61,0,0,0-3.57-1.94,3.91,3.91,0,0,0-3.15,2.2,4.31,4.31,0,0,0-.21,3.52,4.06,4.06,0,0,0,2.33,2.3,3.43,3.43,0,0,0,2.94-.26Zm-2.62,0a2.74,2.74,0,0,1-.94-.17,3,3,0,0,1-1.67-3.86,3.15,3.15,0,0,1,1.59-1.8,2.67,2.67,0,0,1,2.11-.09,3,3,0,0,1,1.66,3.86h0a3,3,0,0,1-1.58,1.79A2.7,2.7,0,0,1,319.31,242.93Zm.15-4.87a1.51,1.51,0,0,0-.65.15,1.87,1.87,0,0,0-.95,1.09,1.8,1.8,0,0,0,.94,2.31,1.47,1.47,0,0,0,1.16-.06,1.88,1.88,0,0,0,1-1.08h0a1.8,1.8,0,0,0-.94-2.31A1.32,1.32,0,0,0,319.46,238.06Z" transform="translate(-201.57 -152.69)"/><path class="cls-3" d="M327.13,241.73h0l.69-1.92s.18-.37.12-.53-.49-.27-.49-.27l-1.45-.53a.82.82,0,0,0-1,.39,13.57,13.57,0,0,0,1.06,15.36,1.59,1.59,0,0,0,.79.58l2.42.82-.25-.33A13.54,13.54,0,0,1,327.13,241.73Z" transform="translate(-201.57 -152.69)"/><path class="cls-3" d="M349,247.55a.82.82,0,0,0-.49-.91l-.19-.07h0L337,242.47s-.12,0-.08.08a1.69,1.69,0,0,0,.66.8c.21.14,2.18.88,2.18.88l4.35,1.58a2.27,2.27,0,0,1,1.38,2.87,13.27,13.27,0,0,1-7.53,8.06,4.36,4.36,0,0,1-2.26.48c-1.21,0-2.31-.05-2.31-.05l3.44,1.25a4.1,4.1,0,0,0,2.14.1A13.5,13.5,0,0,0,349,247.55Z" transform="translate(-201.57 -152.69)"/><path class="cls-2" d="M320.34,241.77c0-.19,0-.22,0-.4,0-.84-1.26-.55-1.28.22,0,.13.19,0,.19.13v.16a2.37,2.37,0,0,1-.14.3c-.38.61-1.4,2.06-1.78,2.67-.27.42.76.61,1,.22.43-.68,1.4-2,1.82-2.72A1.24,1.24,0,0,0,320.34,241.77Z" transform="translate(-201.57 -152.69)"/><path class="cls-2" d="M318.68,240.14c0-.52-1-.69-1.08-.18,0,.15-.05.43-.07.57l0,.19a1.51,1.51,0,0,1-.17.34l-1.93,2.87c-.32.49.55.89.85.44.53-.78,1.66-2.28,2.13-3.1A1.88,1.88,0,0,0,318.68,240.14Z" transform="translate(-201.57 -152.69)"/><path class="cls-2" d="M348.7,224.45a4.71,4.71,0,0,0-4.35-.19,4.66,4.66,0,0,0-8.2-.46,5.57,5.57,0,0,0-.82,3.5,10.91,10.91,0,0,0,1.5,4.27c.09.18.27.46.5.82a12.36,12.36,0,0,1,1.7,3.36,6,6,0,0,1,0,1.75c-.08.66-.23,1.36-.23,1.37l-.12.53.3-.46a4.55,4.55,0,0,0,.54-4.17,22.24,22.24,0,0,0-1.08-2.08l-.05-.1a13.49,13.49,0,0,1-2-5.34,5.4,5.4,0,0,1,.66-2.89,3.35,3.35,0,0,1,3.58-1.47,4.28,4.28,0,0,1,.64.16,3.56,3.56,0,0,1,2.21,2.34l.21.67.6-.38a3.53,3.53,0,0,1,3.79-.1,3.34,3.34,0,0,1,1.8,3.41,5.74,5.74,0,0,1-1.34,2.82,7.18,7.18,0,0,1-1.13.95l-.24.18a23.51,23.51,0,0,1-4,2.25l.06.19a14.92,14.92,0,0,0,6.34-3.31,4.88,4.88,0,0,0,1.35-2.92A4.66,4.66,0,0,0,348.7,224.45Z" transform="translate(-201.57 -152.69)"/></svg>